<?xml version="1.0" encoding="utf-8"?>
<!-- Generator: Adobe Illustrator 16.0.0, SVG Export Plug-In . SVG Version: 6.00 Build 0)  -->
<!DOCTYPE svg PUBLIC "-//W3C//DTD SVG 1.1//EN" "http://www.w3.org/Graphics/SVG/1.1/DTD/svg11.dtd">
<svg version="1.1" id="Layer_1" xmlns="http://www.w3.org/2000/svg" xmlns:xlink="http://www.w3.org/1999/xlink" x="0px" y="0px"
	 width="1000px" height="974.564px" viewBox="0 0 1000 974.564" enable-background="new 0 0 1000 974.564" xml:space="preserve">
<path fill="#0075C9" d="M499.978,0L499.978,0h-0.823h-0.775C139.419,2.635,5.137,159.85,0,487.282
	C5.137,814.67,139.419,971.974,498.379,974.564h0.775h0.823C860.58,971.974,994.858,814.67,1000,487.282
	C994.858,159.85,860.58,2.635,499.978,0 M676.801,321.516c9.804-9.806,82.15-85.432,110.827-103.401
	c28.637-18.14,49.626,18.961,43.147,25.309c-6.522,6.566-121.884,105.82-129.487,110.829
	C686.26,364.099,666.864,331.275,676.801,321.516 M596.984,774.937h-18.66c0,0-18.398,0-26.432-19.094
	c-34.251-81.371-89.966-216.902-99.686-220.963c-10.539-4.321-79.427-13.001-123.57-18.575v187.711h67.467v45.955H173.28v-39.737
	c13.476-1.728,23.106-4.317,28.938-7.604c5.831-3.449,10.538-9.241,14.165-17.273c2.378-5.358,4.146-13.476,5.142-24.187
	c0.947-10.366,1.466-46.646,1.466-46.646V243.165c90.877-33.171,253.102-53.168,257.073-27.596
	c5.057,32.999,4.233,111.907-54.594,111.907c-20.945,0-36.147-20.819-45.088-52.218c-8.771,3.195-51.746,18.14-51.746,18.14v165.941
	c36.713-4.063,83.314-8.942,99.34-16.887c42.803-20.258,119.121-167.021,151.083-242.91h17.925V774.937z M802.661,666.957
	c-37.75-9.068-117.655-41.549-126.206-49.67c-8.595-8.382-13.129-57.875,13.52-52.044c12.009,2.631,124.735,54.289,138.772,61.543
	C842.824,634.043,840.322,675.854,802.661,666.957 M859.54,473.59c-20.989,7.601-169.738,34.681-180.968,34.681
	s-20.905-46.559-1.511-54.765c16.021-6.737,147.541-34.94,159.284-34.94C848.054,418.567,880.573,466.076,859.54,473.59"/>
</svg>
